<mxfile host="app.diagrams.net" agent="Mozilla/5.0 (Windows NT 10.0; Win64; x64) AppleWebKit/537.36 (KHTML, like Gecko) Chrome/131.0.0.0 Safari/537.36" version="24.9.0">
  <diagram name="Página-1" id="T-s0mQuV8Qicfcp4VXSi">
    <mxGraphModel dx="5612" dy="2545" grid="1" gridSize="10" guides="1" tooltips="1" connect="1" arrows="1" fold="1" page="1" pageScale="1" pageWidth="827" pageHeight="1169" math="0" shadow="0">
      <root>
        <mxCell id="0" />
        <mxCell id="1" parent="0" />
        <mxCell id="W1eZ0N9mM1meKJaLG8h9-186" value="Frontend - PIFO" style="rounded=1;whiteSpace=wrap;html=1;" parent="1" vertex="1">
          <mxGeometry x="210" y="384" width="100" height="42" as="geometry" />
        </mxCell>
        <mxCell id="W1eZ0N9mM1meKJaLG8h9-191" style="edgeStyle=none;curved=1;rounded=0;orthogonalLoop=1;jettySize=auto;html=1;fontSize=12;startSize=8;endSize=8;dashed=1;dashPattern=1 2;" parent="1" source="W1eZ0N9mM1meKJaLG8h9-193" edge="1">
          <mxGeometry relative="1" as="geometry">
            <mxPoint x="600" y="224" as="targetPoint" />
          </mxGeometry>
        </mxCell>
        <mxCell id="W1eZ0N9mM1meKJaLG8h9-192" value="HTTP" style="edgeLabel;html=1;align=center;verticalAlign=middle;resizable=0;points=[];fontSize=12;" parent="W1eZ0N9mM1meKJaLG8h9-191" vertex="1" connectable="0">
          <mxGeometry x="-0.0721" relative="1" as="geometry">
            <mxPoint as="offset" />
          </mxGeometry>
        </mxCell>
        <mxCell id="W1eZ0N9mM1meKJaLG8h9-193" value="Frontend - SYM" style="rounded=1;whiteSpace=wrap;html=1;" parent="1" vertex="1">
          <mxGeometry x="210" y="203" width="100" height="42" as="geometry" />
        </mxCell>
        <mxCell id="W1eZ0N9mM1meKJaLG8h9-194" value="Usuarios" style="image;aspect=fixed;html=1;points=[];align=center;fontSize=12;image=img/lib/azure2/intune/Devices.svg;" parent="1" vertex="1">
          <mxGeometry x="90" y="375" width="68" height="60" as="geometry" />
        </mxCell>
        <mxCell id="W1eZ0N9mM1meKJaLG8h9-195" style="edgeStyle=none;curved=1;rounded=0;orthogonalLoop=1;jettySize=auto;html=1;fontSize=12;startSize=8;endSize=8;dashed=1;dashPattern=1 2;entryX=0;entryY=0.5;entryDx=0;entryDy=0;" parent="1" edge="1">
          <mxGeometry relative="1" as="geometry">
            <mxPoint x="148" y="404.9988120271348" as="sourcePoint" />
            <mxPoint x="210" y="405.20000000000005" as="targetPoint" />
          </mxGeometry>
        </mxCell>
        <mxCell id="W1eZ0N9mM1meKJaLG8h9-196" style="rounded=0;orthogonalLoop=1;jettySize=auto;html=1;fontSize=12;startSize=8;endSize=8;dashed=1;dashPattern=1 1;startArrow=classic;startFill=1;edgeStyle=orthogonalEdgeStyle;exitX=1.03;exitY=0.741;exitDx=0;exitDy=0;exitPerimeter=0;" parent="1" target="W1eZ0N9mM1meKJaLG8h9-185" edge="1">
          <mxGeometry relative="1" as="geometry">
            <mxPoint x="313" y="419.12199999999984" as="sourcePoint" />
            <mxPoint x="450" y="466" as="targetPoint" />
            <Array as="points">
              <mxPoint x="380" y="419" />
              <mxPoint x="380" y="495" />
            </Array>
          </mxGeometry>
        </mxCell>
        <mxCell id="W1eZ0N9mM1meKJaLG8h9-197" value="autenticar/&lt;br&gt;generar token" style="edgeLabel;html=1;align=center;verticalAlign=middle;resizable=0;points=[];fontSize=12;" parent="W1eZ0N9mM1meKJaLG8h9-196" vertex="1" connectable="0">
          <mxGeometry x="0.0681" y="-1" relative="1" as="geometry">
            <mxPoint x="1" y="-5" as="offset" />
          </mxGeometry>
        </mxCell>
        <mxCell id="W1eZ0N9mM1meKJaLG8h9-199" style="edgeStyle=orthogonalEdgeStyle;rounded=0;orthogonalLoop=1;jettySize=auto;html=1;entryX=0;entryY=0.5;entryDx=0;entryDy=0;fontSize=12;startSize=8;endSize=8;dashed=1;dashPattern=1 1;" parent="1" source="W1eZ0N9mM1meKJaLG8h9-200" target="W1eZ0N9mM1meKJaLG8h9-193" edge="1">
          <mxGeometry relative="1" as="geometry" />
        </mxCell>
        <mxCell id="W1eZ0N9mM1meKJaLG8h9-200" value="Usuarios" style="image;aspect=fixed;html=1;points=[];align=center;fontSize=12;image=img/lib/azure2/intune/Devices.svg;" parent="1" vertex="1">
          <mxGeometry x="90" y="194" width="68" height="60" as="geometry" />
        </mxCell>
        <mxCell id="W1eZ0N9mM1meKJaLG8h9-208" style="edgeStyle=orthogonalEdgeStyle;rounded=0;orthogonalLoop=1;jettySize=auto;html=1;fontSize=12;startSize=8;endSize=8;dashed=1;dashPattern=1 1;" parent="1" edge="1">
          <mxGeometry relative="1" as="geometry">
            <mxPoint x="600" y="445" as="targetPoint" />
            <mxPoint x="310" y="409" as="sourcePoint" />
            <Array as="points">
              <mxPoint x="540" y="409" />
              <mxPoint x="540" y="445" />
              <mxPoint x="600" y="445" />
            </Array>
          </mxGeometry>
        </mxCell>
        <mxCell id="W1eZ0N9mM1meKJaLG8h9-209" value="HTTP" style="edgeLabel;html=1;align=center;verticalAlign=middle;resizable=0;points=[];fontSize=12;" parent="W1eZ0N9mM1meKJaLG8h9-208" vertex="1" connectable="0">
          <mxGeometry x="-0.0182" y="-1" relative="1" as="geometry">
            <mxPoint as="offset" />
          </mxGeometry>
        </mxCell>
        <mxCell id="W1eZ0N9mM1meKJaLG8h9-218" value="Orquestador" style="swimlane;" parent="1" vertex="1">
          <mxGeometry x="420" y="65" width="420" height="540" as="geometry" />
        </mxCell>
        <mxCell id="W1eZ0N9mM1meKJaLG8h9-222" style="edgeStyle=orthogonalEdgeStyle;rounded=0;orthogonalLoop=1;jettySize=auto;html=1;entryX=0;entryY=0.5;entryDx=0;entryDy=0;fontSize=12;startSize=8;endSize=8;startArrow=classic;startFill=1;dashed=1;dashPattern=1 2;" parent="W1eZ0N9mM1meKJaLG8h9-218" source="W1eZ0N9mM1meKJaLG8h9-198" target="W1eZ0N9mM1meKJaLG8h9-216" edge="1">
          <mxGeometry relative="1" as="geometry" />
        </mxCell>
        <mxCell id="W1eZ0N9mM1meKJaLG8h9-198" value="Keycloack - user" style="image;aspect=fixed;html=1;points=[];align=center;fontSize=12;image=img/lib/azure2/other/Azure_Edge_Hardware_Center.svg;" parent="W1eZ0N9mM1meKJaLG8h9-218" vertex="1">
          <mxGeometry x="50" y="40" width="68" height="68" as="geometry" />
        </mxCell>
        <mxCell id="W1eZ0N9mM1meKJaLG8h9-311" style="edgeStyle=orthogonalEdgeStyle;rounded=0;orthogonalLoop=1;jettySize=auto;html=1;fontSize=12;startSize=8;endSize=8;startArrow=classic;startFill=1;dashed=1;dashPattern=1 1;entryX=0;entryY=0.5;entryDx=0;entryDy=0;" parent="W1eZ0N9mM1meKJaLG8h9-218" target="W1eZ0N9mM1meKJaLG8h9-213" edge="1">
          <mxGeometry relative="1" as="geometry">
            <mxPoint x="100" y="270" as="sourcePoint" />
            <mxPoint x="212" y="381" as="targetPoint" />
            <Array as="points">
              <mxPoint x="152" y="270" />
              <mxPoint x="152" y="360" />
              <mxPoint x="190" y="360" />
              <mxPoint x="190" y="381" />
            </Array>
          </mxGeometry>
        </mxCell>
        <mxCell id="W1eZ0N9mM1meKJaLG8h9-316" value="autenticar/&lt;br&gt;generar token" style="edgeLabel;html=1;align=center;verticalAlign=middle;resizable=0;points=[];fontSize=12;" parent="W1eZ0N9mM1meKJaLG8h9-311" vertex="1" connectable="0">
          <mxGeometry x="-0.1518" relative="1" as="geometry">
            <mxPoint x="-12" y="3" as="offset" />
          </mxGeometry>
        </mxCell>
        <mxCell id="W1eZ0N9mM1meKJaLG8h9-205" value="Keycloack - system" style="image;aspect=fixed;html=1;points=[];align=center;fontSize=12;image=img/lib/azure2/other/Azure_Edge_Hardware_Center.svg;" parent="W1eZ0N9mM1meKJaLG8h9-218" vertex="1">
          <mxGeometry x="30" y="210" width="68" height="68" as="geometry" />
        </mxCell>
        <mxCell id="W1eZ0N9mM1meKJaLG8h9-306" style="edgeStyle=none;curved=1;rounded=0;orthogonalLoop=1;jettySize=auto;html=1;fontSize=12;startSize=8;endSize=8;startArrow=classic;startFill=1;dashed=1;dashPattern=1 2;entryX=0.35;entryY=0;entryDx=0;entryDy=0;entryPerimeter=0;" parent="W1eZ0N9mM1meKJaLG8h9-218" target="W1eZ0N9mM1meKJaLG8h9-210" edge="1">
          <mxGeometry relative="1" as="geometry">
            <mxPoint x="250" y="230" as="sourcePoint" />
            <mxPoint x="250" y="280" as="targetPoint" />
          </mxGeometry>
        </mxCell>
        <mxCell id="W1eZ0N9mM1meKJaLG8h9-214" value="Backend" style="swimlane;" parent="W1eZ0N9mM1meKJaLG8h9-218" vertex="1">
          <mxGeometry x="180" y="50" width="200" height="180" as="geometry">
            <mxRectangle x="585" y="260" width="90" height="30" as="alternateBounds" />
          </mxGeometry>
        </mxCell>
        <mxCell id="W1eZ0N9mM1meKJaLG8h9-215" value="Servicio de Autenticación" style="swimlane;" parent="W1eZ0N9mM1meKJaLG8h9-214" vertex="1">
          <mxGeometry x="15" y="40" width="170" height="130" as="geometry">
            <mxRectangle x="15" y="85" width="170" height="30" as="alternateBounds" />
          </mxGeometry>
        </mxCell>
        <mxCell id="W1eZ0N9mM1meKJaLG8h9-216" value="&lt;span style=&quot;font-size: 10px;&quot;&gt;Componente: Autenticar token y usuario (user)&lt;/span&gt;" style="rounded=1;whiteSpace=wrap;html=1;" parent="W1eZ0N9mM1meKJaLG8h9-215" vertex="1">
          <mxGeometry x="25" y="30.5" width="120" height="39.5" as="geometry" />
        </mxCell>
        <mxCell id="W1eZ0N9mM1meKJaLG8h9-217" value="&lt;span style=&quot;font-size: 10px;&quot;&gt;Componente: Autenticar token y usuario (system)&lt;/span&gt;" style="rounded=1;whiteSpace=wrap;html=1;" parent="W1eZ0N9mM1meKJaLG8h9-215" vertex="1">
          <mxGeometry x="25" y="80" width="120" height="40" as="geometry" />
        </mxCell>
        <mxCell id="W1eZ0N9mM1meKJaLG8h9-187" style="edgeStyle=orthogonalEdgeStyle;rounded=0;orthogonalLoop=1;jettySize=auto;html=1;fontSize=12;startSize=8;endSize=8;dashed=1;dashPattern=1 2;startArrow=classic;startFill=1;" parent="W1eZ0N9mM1meKJaLG8h9-218" edge="1">
          <mxGeometry relative="1" as="geometry">
            <mxPoint x="36" y="70" as="targetPoint" />
            <Array as="points">
              <mxPoint x="-60" y="150" />
              <mxPoint x="-60" y="70" />
              <mxPoint x="36" y="70" />
            </Array>
            <mxPoint x="-110" y="150" as="sourcePoint" />
          </mxGeometry>
        </mxCell>
        <mxCell id="W1eZ0N9mM1meKJaLG8h9-188" value="autenticar/&lt;br&gt;generar token" style="edgeLabel;html=1;align=center;verticalAlign=middle;resizable=0;points=[];fontSize=12;" parent="W1eZ0N9mM1meKJaLG8h9-187" vertex="1" connectable="0">
          <mxGeometry x="0.0238" y="2" relative="1" as="geometry">
            <mxPoint y="17" as="offset" />
          </mxGeometry>
        </mxCell>
        <mxCell id="W1eZ0N9mM1meKJaLG8h9-210" value="Backend" style="swimlane;" parent="W1eZ0N9mM1meKJaLG8h9-218" vertex="1">
          <mxGeometry x="180" y="290" width="200" height="180" as="geometry">
            <mxRectangle x="585" y="260" width="90" height="30" as="alternateBounds" />
          </mxGeometry>
        </mxCell>
        <mxCell id="W1eZ0N9mM1meKJaLG8h9-211" value="Servicio de Autenticación" style="swimlane;" parent="W1eZ0N9mM1meKJaLG8h9-210" vertex="1">
          <mxGeometry x="15" y="40" width="170" height="130" as="geometry">
            <mxRectangle x="15" y="85" width="170" height="30" as="alternateBounds" />
          </mxGeometry>
        </mxCell>
        <mxCell id="W1eZ0N9mM1meKJaLG8h9-213" value="&lt;font style=&quot;font-size: 10px;&quot;&gt;Componente: Autenticar token y usuario (system)&lt;/font&gt;" style="rounded=1;whiteSpace=wrap;html=1;" parent="W1eZ0N9mM1meKJaLG8h9-211" vertex="1">
          <mxGeometry x="25" y="31" width="120" height="40" as="geometry" />
        </mxCell>
        <mxCell id="W1eZ0N9mM1meKJaLG8h9-212" value="&lt;font style=&quot;font-size: 10px;&quot;&gt;Componente: Autenticar token y usuario (user)&lt;/font&gt;" style="rounded=1;whiteSpace=wrap;html=1;" parent="W1eZ0N9mM1meKJaLG8h9-211" vertex="1">
          <mxGeometry x="25" y="80" width="120" height="39.5" as="geometry" />
        </mxCell>
        <mxCell id="W1eZ0N9mM1meKJaLG8h9-307" style="edgeStyle=none;curved=1;rounded=0;orthogonalLoop=1;jettySize=auto;html=1;fontSize=12;startSize=8;endSize=8;startArrow=classic;startFill=1;dashed=1;dashPattern=1 2;" parent="W1eZ0N9mM1meKJaLG8h9-218" edge="1">
          <mxGeometry relative="1" as="geometry">
            <mxPoint x="300" y="230" as="sourcePoint" />
            <mxPoint x="300" y="290" as="targetPoint" />
          </mxGeometry>
        </mxCell>
        <mxCell id="W1eZ0N9mM1meKJaLG8h9-310" style="edgeStyle=orthogonalEdgeStyle;rounded=0;orthogonalLoop=1;jettySize=auto;html=1;entryX=0;entryY=0.5;entryDx=0;entryDy=0;fontSize=12;startSize=8;endSize=8;dashed=1;dashPattern=1 2;startArrow=classic;startFill=1;" parent="W1eZ0N9mM1meKJaLG8h9-218" source="W1eZ0N9mM1meKJaLG8h9-185" target="W1eZ0N9mM1meKJaLG8h9-212" edge="1">
          <mxGeometry relative="1" as="geometry">
            <Array as="points">
              <mxPoint x="140" y="430" />
              <mxPoint x="140" y="430" />
            </Array>
          </mxGeometry>
        </mxCell>
        <mxCell id="W1eZ0N9mM1meKJaLG8h9-329" value="validar" style="edgeLabel;html=1;align=center;verticalAlign=middle;resizable=0;points=[];fontSize=12;" parent="W1eZ0N9mM1meKJaLG8h9-310" vertex="1" connectable="0">
          <mxGeometry x="-0.0894" y="-1" relative="1" as="geometry">
            <mxPoint x="-4" y="-1" as="offset" />
          </mxGeometry>
        </mxCell>
        <mxCell id="W1eZ0N9mM1meKJaLG8h9-185" value="Keycloack - user" style="image;aspect=fixed;html=1;points=[];align=center;fontSize=12;image=img/lib/azure2/other/Azure_Edge_Hardware_Center.svg;" parent="W1eZ0N9mM1meKJaLG8h9-218" vertex="1">
          <mxGeometry x="50" y="398" width="68" height="68" as="geometry" />
        </mxCell>
        <mxCell id="W1eZ0N9mM1meKJaLG8h9-328" value="2" style="ellipse;whiteSpace=wrap;html=1;aspect=fixed;rotation=0;gradientColor=#223548;strokeColor=none;gradientDirection=east;fillColor=#5b738b;rounded=0;pointerEvents=0;fontFamily=Helvetica;fontSize=16;fontColor=#FFFFFF;spacingTop=4;spacingBottom=4;spacingLeft=4;spacingRight=4;points=[];fontStyle=1" parent="W1eZ0N9mM1meKJaLG8h9-218" vertex="1">
          <mxGeometry y="308" width="30" height="30" as="geometry" />
        </mxCell>
        <mxCell id="W1eZ0N9mM1meKJaLG8h9-331" value="3" style="ellipse;whiteSpace=wrap;html=1;aspect=fixed;rotation=0;gradientColor=#223548;strokeColor=none;gradientDirection=east;fillColor=#5b738b;rounded=0;pointerEvents=0;fontFamily=Helvetica;fontSize=16;fontColor=#FFFFFF;spacingTop=4;spacingBottom=4;spacingLeft=4;spacingRight=4;points=[];fontStyle=1" parent="W1eZ0N9mM1meKJaLG8h9-218" vertex="1">
          <mxGeometry x="140" y="440" width="30" height="30" as="geometry" />
        </mxCell>
        <mxCell id="W1eZ0N9mM1meKJaLG8h9-332" value="4" style="ellipse;whiteSpace=wrap;html=1;aspect=fixed;rotation=0;gradientColor=#223548;strokeColor=none;gradientDirection=east;fillColor=#5b738b;rounded=0;pointerEvents=0;fontFamily=Helvetica;fontSize=16;fontColor=#FFFFFF;spacingTop=4;spacingBottom=4;spacingLeft=4;spacingRight=4;points=[];fontStyle=1" parent="W1eZ0N9mM1meKJaLG8h9-218" vertex="1">
          <mxGeometry x="130" y="278" width="30" height="30" as="geometry" />
        </mxCell>
        <mxCell id="W1eZ0N9mM1meKJaLG8h9-333" value="5" style="ellipse;whiteSpace=wrap;html=1;aspect=fixed;rotation=0;gradientColor=#223548;strokeColor=none;gradientDirection=east;fillColor=#5b738b;rounded=0;pointerEvents=0;fontFamily=Helvetica;fontSize=16;fontColor=#FFFFFF;spacingTop=4;spacingBottom=4;spacingLeft=4;spacingRight=4;points=[];fontStyle=1" parent="W1eZ0N9mM1meKJaLG8h9-218" vertex="1">
          <mxGeometry x="210" y="248" width="30" height="30" as="geometry" />
        </mxCell>
        <mxCell id="W1eZ0N9mM1meKJaLG8h9-252" value="Frontend - PIFO" style="rounded=1;whiteSpace=wrap;html=1;" parent="1" vertex="1">
          <mxGeometry x="-660" y="419" width="100" height="42" as="geometry" />
        </mxCell>
        <mxCell id="W1eZ0N9mM1meKJaLG8h9-253" style="edgeStyle=none;curved=1;rounded=0;orthogonalLoop=1;jettySize=auto;html=1;fontSize=12;startSize=8;endSize=8;dashed=1;dashPattern=1 2;startArrow=none;startFill=0;" parent="1" source="W1eZ0N9mM1meKJaLG8h9-255" edge="1">
          <mxGeometry relative="1" as="geometry">
            <mxPoint x="-270" y="189" as="targetPoint" />
          </mxGeometry>
        </mxCell>
        <mxCell id="W1eZ0N9mM1meKJaLG8h9-254" value="HTTP" style="edgeLabel;html=1;align=center;verticalAlign=middle;resizable=0;points=[];fontSize=12;" parent="W1eZ0N9mM1meKJaLG8h9-253" vertex="1" connectable="0">
          <mxGeometry x="-0.0721" relative="1" as="geometry">
            <mxPoint as="offset" />
          </mxGeometry>
        </mxCell>
        <mxCell id="W1eZ0N9mM1meKJaLG8h9-255" value="Frontend - SYM" style="rounded=1;whiteSpace=wrap;html=1;" parent="1" vertex="1">
          <mxGeometry x="-660" y="168" width="100" height="42" as="geometry" />
        </mxCell>
        <mxCell id="W1eZ0N9mM1meKJaLG8h9-256" value="Usuarios" style="image;aspect=fixed;html=1;points=[];align=center;fontSize=12;image=img/lib/azure2/intune/Devices.svg;" parent="1" vertex="1">
          <mxGeometry x="-780" y="410" width="68" height="60" as="geometry" />
        </mxCell>
        <mxCell id="W1eZ0N9mM1meKJaLG8h9-257" style="edgeStyle=none;curved=1;rounded=0;orthogonalLoop=1;jettySize=auto;html=1;fontSize=12;startSize=8;endSize=8;dashed=1;dashPattern=1 2;entryX=0;entryY=0.5;entryDx=0;entryDy=0;" parent="1" edge="1">
          <mxGeometry relative="1" as="geometry">
            <mxPoint x="-722" y="439.9988120271348" as="sourcePoint" />
            <mxPoint x="-660" y="440.20000000000005" as="targetPoint" />
          </mxGeometry>
        </mxCell>
        <mxCell id="W1eZ0N9mM1meKJaLG8h9-260" style="edgeStyle=orthogonalEdgeStyle;rounded=0;orthogonalLoop=1;jettySize=auto;html=1;entryX=0;entryY=0.5;entryDx=0;entryDy=0;fontSize=12;startSize=8;endSize=8;dashed=1;dashPattern=1 1;" parent="1" source="W1eZ0N9mM1meKJaLG8h9-261" target="W1eZ0N9mM1meKJaLG8h9-255" edge="1">
          <mxGeometry relative="1" as="geometry" />
        </mxCell>
        <mxCell id="W1eZ0N9mM1meKJaLG8h9-261" value="Usuarios" style="image;aspect=fixed;html=1;points=[];align=center;fontSize=12;image=img/lib/azure2/intune/Devices.svg;" parent="1" vertex="1">
          <mxGeometry x="-780" y="159" width="68" height="60" as="geometry" />
        </mxCell>
        <mxCell id="W1eZ0N9mM1meKJaLG8h9-264" value="&#xa;Orquestador&#xa;" style="swimlane;" parent="1" vertex="1">
          <mxGeometry x="-450" y="30" width="420" height="560" as="geometry" />
        </mxCell>
        <mxCell id="W1eZ0N9mM1meKJaLG8h9-265" style="edgeStyle=orthogonalEdgeStyle;rounded=0;orthogonalLoop=1;jettySize=auto;html=1;entryX=0;entryY=0.5;entryDx=0;entryDy=0;fontSize=12;startSize=8;endSize=8;startArrow=classic;startFill=1;dashed=1;dashPattern=1 2;" parent="W1eZ0N9mM1meKJaLG8h9-264" source="W1eZ0N9mM1meKJaLG8h9-266" target="W1eZ0N9mM1meKJaLG8h9-270" edge="1">
          <mxGeometry relative="1" as="geometry">
            <Array as="points">
              <mxPoint x="160" y="74" />
              <mxPoint x="160" y="140" />
            </Array>
          </mxGeometry>
        </mxCell>
        <mxCell id="W1eZ0N9mM1meKJaLG8h9-312" value="validar" style="edgeLabel;html=1;align=center;verticalAlign=middle;resizable=0;points=[];fontSize=12;" parent="W1eZ0N9mM1meKJaLG8h9-265" vertex="1" connectable="0">
          <mxGeometry x="-0.0114" y="-1" relative="1" as="geometry">
            <mxPoint as="offset" />
          </mxGeometry>
        </mxCell>
        <mxCell id="W1eZ0N9mM1meKJaLG8h9-266" value="Keycloack - user" style="image;aspect=fixed;html=1;points=[];align=center;fontSize=12;image=img/lib/azure2/other/Azure_Edge_Hardware_Center.svg;" parent="W1eZ0N9mM1meKJaLG8h9-264" vertex="1">
          <mxGeometry x="37" y="40" width="68" height="68" as="geometry" />
        </mxCell>
        <mxCell id="W1eZ0N9mM1meKJaLG8h9-268" value="Backend" style="swimlane;" parent="W1eZ0N9mM1meKJaLG8h9-264" vertex="1">
          <mxGeometry x="180" y="50" width="200" height="180" as="geometry">
            <mxRectangle x="585" y="260" width="90" height="30" as="alternateBounds" />
          </mxGeometry>
        </mxCell>
        <mxCell id="W1eZ0N9mM1meKJaLG8h9-269" value="Servicio de Autenticación" style="swimlane;" parent="W1eZ0N9mM1meKJaLG8h9-268" vertex="1">
          <mxGeometry x="15" y="40" width="170" height="130" as="geometry">
            <mxRectangle x="15" y="85" width="170" height="30" as="alternateBounds" />
          </mxGeometry>
        </mxCell>
        <mxCell id="W1eZ0N9mM1meKJaLG8h9-270" value="&lt;span style=&quot;font-size: 10px;&quot;&gt;Componente: Autenticar token y usuario (user)&lt;/span&gt;" style="rounded=1;whiteSpace=wrap;html=1;" parent="W1eZ0N9mM1meKJaLG8h9-269" vertex="1">
          <mxGeometry x="25" y="30.5" width="120" height="39.5" as="geometry" />
        </mxCell>
        <mxCell id="W1eZ0N9mM1meKJaLG8h9-271" value="&lt;font style=&quot;font-size: 10px;&quot;&gt;Componente: Autenticar&amp;nbsp;&lt;br&gt;&lt;/font&gt;&lt;span style=&quot;font-size: 10px;&quot;&gt;Keycloack -system&lt;/span&gt;" style="rounded=1;whiteSpace=wrap;html=1;" parent="W1eZ0N9mM1meKJaLG8h9-269" vertex="1">
          <mxGeometry x="25" y="80" width="120" height="40" as="geometry" />
        </mxCell>
        <mxCell id="W1eZ0N9mM1meKJaLG8h9-272" style="edgeStyle=orthogonalEdgeStyle;rounded=0;orthogonalLoop=1;jettySize=auto;html=1;fontSize=12;startSize=8;endSize=8;dashed=1;dashPattern=1 2;startArrow=classic;startFill=1;" parent="W1eZ0N9mM1meKJaLG8h9-264" edge="1">
          <mxGeometry relative="1" as="geometry">
            <mxPoint x="36" y="70" as="targetPoint" />
            <Array as="points">
              <mxPoint x="-60" y="150" />
              <mxPoint x="-60" y="70" />
              <mxPoint x="36" y="70" />
            </Array>
            <mxPoint x="-110" y="150" as="sourcePoint" />
          </mxGeometry>
        </mxCell>
        <mxCell id="W1eZ0N9mM1meKJaLG8h9-273" value="autenticar/&lt;br&gt;generar token" style="edgeLabel;html=1;align=center;verticalAlign=middle;resizable=0;points=[];fontSize=12;" parent="W1eZ0N9mM1meKJaLG8h9-272" vertex="1" connectable="0">
          <mxGeometry x="0.0238" y="2" relative="1" as="geometry">
            <mxPoint y="17" as="offset" />
          </mxGeometry>
        </mxCell>
        <mxCell id="W1eZ0N9mM1meKJaLG8h9-274" value="Backend" style="swimlane;" parent="W1eZ0N9mM1meKJaLG8h9-264" vertex="1">
          <mxGeometry x="190" y="310" width="200" height="180" as="geometry">
            <mxRectangle x="585" y="260" width="90" height="30" as="alternateBounds" />
          </mxGeometry>
        </mxCell>
        <mxCell id="W1eZ0N9mM1meKJaLG8h9-275" value="Servicio de Autenticación" style="swimlane;" parent="W1eZ0N9mM1meKJaLG8h9-274" vertex="1">
          <mxGeometry x="15" y="40" width="170" height="130" as="geometry">
            <mxRectangle x="15" y="85" width="170" height="30" as="alternateBounds" />
          </mxGeometry>
        </mxCell>
        <mxCell id="W1eZ0N9mM1meKJaLG8h9-277" value="&lt;span style=&quot;font-size: 10px;&quot;&gt;Componente: Autenticar token y usuario (system)&lt;/span&gt;" style="rounded=1;whiteSpace=wrap;html=1;" parent="W1eZ0N9mM1meKJaLG8h9-275" vertex="1">
          <mxGeometry x="25" y="30" width="120" height="40" as="geometry" />
        </mxCell>
        <mxCell id="W1eZ0N9mM1meKJaLG8h9-276" value="&lt;span style=&quot;font-size: 10px;&quot;&gt;Componente: Autenticar token y usuario (user)&lt;/span&gt;" style="rounded=1;whiteSpace=wrap;html=1;" parent="W1eZ0N9mM1meKJaLG8h9-275" vertex="1">
          <mxGeometry x="25" y="81" width="120" height="39.5" as="geometry" />
        </mxCell>
        <mxCell id="W1eZ0N9mM1meKJaLG8h9-293" style="edgeStyle=none;curved=1;rounded=0;orthogonalLoop=1;jettySize=auto;html=1;fontSize=12;startSize=8;endSize=8;dashed=1;dashPattern=1 2;startArrow=block;startFill=1;" parent="W1eZ0N9mM1meKJaLG8h9-264" edge="1">
          <mxGeometry relative="1" as="geometry">
            <mxPoint x="180" y="419" as="targetPoint" />
            <mxPoint x="-110" y="419" as="sourcePoint" />
          </mxGeometry>
        </mxCell>
        <mxCell id="W1eZ0N9mM1meKJaLG8h9-294" value="HTTP" style="edgeLabel;html=1;align=center;verticalAlign=middle;resizable=0;points=[];fontSize=12;" parent="W1eZ0N9mM1meKJaLG8h9-293" vertex="1" connectable="0">
          <mxGeometry x="-0.0721" relative="1" as="geometry">
            <mxPoint as="offset" />
          </mxGeometry>
        </mxCell>
        <mxCell id="W1eZ0N9mM1meKJaLG8h9-301" style="edgeStyle=orthogonalEdgeStyle;rounded=0;orthogonalLoop=1;jettySize=auto;html=1;fontSize=12;startSize=8;endSize=8;startArrow=classic;startFill=1;dashed=1;dashPattern=1 2;" parent="W1eZ0N9mM1meKJaLG8h9-264" source="W1eZ0N9mM1meKJaLG8h9-296" edge="1">
          <mxGeometry relative="1" as="geometry">
            <mxPoint x="230" y="440" as="targetPoint" />
            <Array as="points">
              <mxPoint x="170" y="484" />
              <mxPoint x="170" y="440" />
              <mxPoint x="230" y="440" />
            </Array>
          </mxGeometry>
        </mxCell>
        <mxCell id="W1eZ0N9mM1meKJaLG8h9-313" value="validar" style="edgeLabel;html=1;align=center;verticalAlign=middle;resizable=0;points=[];fontSize=12;" parent="W1eZ0N9mM1meKJaLG8h9-301" vertex="1" connectable="0">
          <mxGeometry x="-0.1016" relative="1" as="geometry">
            <mxPoint x="-4" y="-6" as="offset" />
          </mxGeometry>
        </mxCell>
        <mxCell id="W1eZ0N9mM1meKJaLG8h9-296" value="Keycloack - user" style="image;aspect=fixed;html=1;points=[];align=center;fontSize=12;image=img/lib/azure2/other/Azure_Edge_Hardware_Center.svg;" parent="W1eZ0N9mM1meKJaLG8h9-264" vertex="1">
          <mxGeometry x="50" y="450" width="68" height="68" as="geometry" />
        </mxCell>
        <mxCell id="W1eZ0N9mM1meKJaLG8h9-321" value="3" style="ellipse;whiteSpace=wrap;html=1;aspect=fixed;rotation=0;gradientColor=#223548;strokeColor=none;gradientDirection=east;fillColor=#5b738b;rounded=0;pointerEvents=0;fontFamily=Helvetica;fontSize=16;fontColor=#FFFFFF;spacingTop=4;spacingBottom=4;spacingLeft=4;spacingRight=4;points=[];fontStyle=1" parent="W1eZ0N9mM1meKJaLG8h9-264" vertex="1">
          <mxGeometry x="140" y="40" width="30" height="30" as="geometry" />
        </mxCell>
        <mxCell id="W1eZ0N9mM1meKJaLG8h9-325" style="edgeStyle=none;curved=1;rounded=0;orthogonalLoop=1;jettySize=auto;html=1;entryX=1;entryY=0.75;entryDx=0;entryDy=0;fontSize=12;startSize=8;endSize=8;dashed=1;dashPattern=1 1;" parent="W1eZ0N9mM1meKJaLG8h9-264" edge="1">
          <mxGeometry relative="1" as="geometry">
            <mxPoint x="180" y="400.5" as="sourcePoint" />
            <mxPoint x="-110" y="400" as="targetPoint" />
          </mxGeometry>
        </mxCell>
        <mxCell id="W1eZ0N9mM1meKJaLG8h9-326" value="respuesta&amp;nbsp;" style="edgeLabel;html=1;align=center;verticalAlign=middle;resizable=0;points=[];fontSize=12;" parent="W1eZ0N9mM1meKJaLG8h9-325" vertex="1" connectable="0">
          <mxGeometry x="0.0144" y="4" relative="1" as="geometry">
            <mxPoint x="3" y="-4" as="offset" />
          </mxGeometry>
        </mxCell>
        <mxCell id="W1eZ0N9mM1meKJaLG8h9-278" value="Siseg-usuario" style="whiteSpace=wrap;html=1;shape=mxgraph.basic.cloud_rect;fillColor=#fff2cc;strokeColor=#d6b656;" parent="1" vertex="1">
          <mxGeometry x="-800" width="150" height="30" as="geometry" />
        </mxCell>
        <mxCell id="W1eZ0N9mM1meKJaLG8h9-279" value="Siseg-aplicativo" style="whiteSpace=wrap;html=1;shape=mxgraph.basic.cloud_rect;fillColor=#fff2cc;strokeColor=#d6b656;" parent="1" vertex="1">
          <mxGeometry x="60" width="150" height="30" as="geometry" />
        </mxCell>
        <mxCell id="W1eZ0N9mM1meKJaLG8h9-299" style="edgeStyle=orthogonalEdgeStyle;rounded=0;orthogonalLoop=1;jettySize=auto;html=1;fontSize=12;startSize=8;endSize=8;dashed=1;dashPattern=1 2;startArrow=classic;startFill=1;entryX=-0.048;entryY=0.505;entryDx=0;entryDy=0;entryPerimeter=0;exitX=1.007;exitY=0.918;exitDx=0;exitDy=0;exitPerimeter=0;" parent="1" source="W1eZ0N9mM1meKJaLG8h9-252" target="W1eZ0N9mM1meKJaLG8h9-296" edge="1">
          <mxGeometry relative="1" as="geometry">
            <mxPoint x="-414" y="360" as="targetPoint" />
            <Array as="points">
              <mxPoint x="-510" y="458" />
              <mxPoint x="-510" y="514" />
            </Array>
            <mxPoint x="-560" y="440" as="sourcePoint" />
          </mxGeometry>
        </mxCell>
        <mxCell id="W1eZ0N9mM1meKJaLG8h9-300" value="autenticar/&lt;br&gt;generar token" style="edgeLabel;html=1;align=center;verticalAlign=middle;resizable=0;points=[];fontSize=12;" parent="W1eZ0N9mM1meKJaLG8h9-299" vertex="1" connectable="0">
          <mxGeometry x="0.0238" y="2" relative="1" as="geometry">
            <mxPoint y="17" as="offset" />
          </mxGeometry>
        </mxCell>
        <mxCell id="W1eZ0N9mM1meKJaLG8h9-319" value="1" style="ellipse;whiteSpace=wrap;html=1;aspect=fixed;rotation=0;gradientColor=#223548;strokeColor=none;gradientDirection=east;fillColor=#5b738b;rounded=0;pointerEvents=0;fontFamily=Helvetica;fontSize=16;fontColor=#FFFFFF;spacingTop=4;spacingBottom=4;spacingLeft=4;spacingRight=4;points=[];fontStyle=1" parent="1" vertex="1">
          <mxGeometry x="-540" y="80" width="30" height="30" as="geometry" />
        </mxCell>
        <mxCell id="W1eZ0N9mM1meKJaLG8h9-322" style="edgeStyle=none;curved=1;rounded=0;orthogonalLoop=1;jettySize=auto;html=1;entryX=1;entryY=0.75;entryDx=0;entryDy=0;fontSize=12;startSize=8;endSize=8;dashed=1;dashPattern=1 1;" parent="1" edge="1">
          <mxGeometry relative="1" as="geometry">
            <mxPoint x="-270" y="206" as="sourcePoint" />
            <mxPoint x="-560" y="205.5" as="targetPoint" />
          </mxGeometry>
        </mxCell>
        <mxCell id="W1eZ0N9mM1meKJaLG8h9-324" value="respuesta&amp;nbsp;" style="edgeLabel;html=1;align=center;verticalAlign=middle;resizable=0;points=[];fontSize=12;" parent="W1eZ0N9mM1meKJaLG8h9-322" vertex="1" connectable="0">
          <mxGeometry x="0.0144" y="4" relative="1" as="geometry">
            <mxPoint x="3" y="-4" as="offset" />
          </mxGeometry>
        </mxCell>
        <mxCell id="W1eZ0N9mM1meKJaLG8h9-320" value="2" style="ellipse;whiteSpace=wrap;html=1;aspect=fixed;rotation=0;gradientColor=#223548;strokeColor=none;gradientDirection=east;fillColor=#5b738b;rounded=0;pointerEvents=0;fontFamily=Helvetica;fontSize=16;fontColor=#FFFFFF;spacingTop=4;spacingBottom=4;spacingLeft=4;spacingRight=4;points=[];fontStyle=1" parent="1" vertex="1">
          <mxGeometry x="-470" y="155" width="30" height="30" as="geometry" />
        </mxCell>
        <mxCell id="W1eZ0N9mM1meKJaLG8h9-323" value="4" style="ellipse;whiteSpace=wrap;html=1;aspect=fixed;rotation=0;gradientColor=#223548;strokeColor=none;gradientDirection=east;fillColor=#5b738b;rounded=0;pointerEvents=0;fontFamily=Helvetica;fontSize=16;fontColor=#FFFFFF;spacingTop=4;spacingBottom=4;spacingLeft=4;spacingRight=4;points=[];fontStyle=1" parent="1" vertex="1">
          <mxGeometry x="-470" y="210" width="30" height="30" as="geometry" />
        </mxCell>
        <mxCell id="W1eZ0N9mM1meKJaLG8h9-327" value="1" style="ellipse;whiteSpace=wrap;html=1;aspect=fixed;rotation=0;gradientColor=#223548;strokeColor=none;gradientDirection=east;fillColor=#5b738b;rounded=0;pointerEvents=0;fontFamily=Helvetica;fontSize=16;fontColor=#FFFFFF;spacingTop=4;spacingBottom=4;spacingLeft=4;spacingRight=4;points=[];fontStyle=1" parent="1" vertex="1">
          <mxGeometry x="310" y="465" width="30" height="30" as="geometry" />
        </mxCell>
        <mxCell id="TM5l29GwyUXtNOeEZAqI-40" value="Frontend - PIFO" style="rounded=1;whiteSpace=wrap;html=1;" parent="1" vertex="1">
          <mxGeometry x="1040" y="428" width="100" height="42" as="geometry" />
        </mxCell>
        <mxCell id="TM5l29GwyUXtNOeEZAqI-41" style="edgeStyle=orthogonalEdgeStyle;rounded=0;orthogonalLoop=1;jettySize=auto;html=1;fontSize=12;startSize=8;endSize=8;dashed=1;dashPattern=1 2;entryX=0;entryY=0.625;entryDx=0;entryDy=0;entryPerimeter=0;" parent="1" source="TM5l29GwyUXtNOeEZAqI-43" edge="1" target="TM5l29GwyUXtNOeEZAqI-62">
          <mxGeometry relative="1" as="geometry">
            <mxPoint x="1430" y="224" as="targetPoint" />
            <Array as="points">
              <mxPoint x="1400" y="224" />
              <mxPoint x="1400" y="260" />
            </Array>
          </mxGeometry>
        </mxCell>
        <mxCell id="TM5l29GwyUXtNOeEZAqI-42" value="HTTP" style="edgeLabel;html=1;align=center;verticalAlign=middle;resizable=0;points=[];fontSize=12;" parent="TM5l29GwyUXtNOeEZAqI-41" vertex="1" connectable="0">
          <mxGeometry x="-0.0721" relative="1" as="geometry">
            <mxPoint as="offset" />
          </mxGeometry>
        </mxCell>
        <mxCell id="TM5l29GwyUXtNOeEZAqI-43" value="Frontend - SYM" style="rounded=1;whiteSpace=wrap;html=1;" parent="1" vertex="1">
          <mxGeometry x="1040" y="203" width="100" height="42" as="geometry" />
        </mxCell>
        <mxCell id="TM5l29GwyUXtNOeEZAqI-44" value="Usuarios" style="image;aspect=fixed;html=1;points=[];align=center;fontSize=12;image=img/lib/azure2/intune/Devices.svg;" parent="1" vertex="1">
          <mxGeometry x="920" y="419" width="68" height="60" as="geometry" />
        </mxCell>
        <mxCell id="TM5l29GwyUXtNOeEZAqI-45" style="edgeStyle=none;curved=1;rounded=0;orthogonalLoop=1;jettySize=auto;html=1;fontSize=12;startSize=8;endSize=8;dashed=1;dashPattern=1 2;entryX=0;entryY=0.5;entryDx=0;entryDy=0;" parent="1" edge="1">
          <mxGeometry relative="1" as="geometry">
            <mxPoint x="978" y="448.9988120271348" as="sourcePoint" />
            <mxPoint x="1040" y="449.20000000000005" as="targetPoint" />
          </mxGeometry>
        </mxCell>
        <mxCell id="TM5l29GwyUXtNOeEZAqI-48" style="edgeStyle=orthogonalEdgeStyle;rounded=0;orthogonalLoop=1;jettySize=auto;html=1;entryX=0;entryY=0.5;entryDx=0;entryDy=0;fontSize=12;startSize=8;endSize=8;dashed=1;dashPattern=1 1;" parent="1" source="TM5l29GwyUXtNOeEZAqI-49" target="TM5l29GwyUXtNOeEZAqI-43" edge="1">
          <mxGeometry relative="1" as="geometry" />
        </mxCell>
        <mxCell id="TM5l29GwyUXtNOeEZAqI-49" value="Usuarios" style="image;aspect=fixed;html=1;points=[];align=center;fontSize=12;image=img/lib/azure2/intune/Devices.svg;" parent="1" vertex="1">
          <mxGeometry x="920" y="194" width="68" height="60" as="geometry" />
        </mxCell>
        <mxCell id="TM5l29GwyUXtNOeEZAqI-50" style="edgeStyle=orthogonalEdgeStyle;rounded=0;orthogonalLoop=1;jettySize=auto;html=1;fontSize=12;startSize=8;endSize=8;dashed=1;dashPattern=1 1;exitX=1;exitY=0.5;exitDx=0;exitDy=0;entryX=0;entryY=0.5;entryDx=0;entryDy=0;" parent="1" edge="1" target="TM5l29GwyUXtNOeEZAqI-68" source="TM5l29GwyUXtNOeEZAqI-40">
          <mxGeometry relative="1" as="geometry">
            <mxPoint x="1430" y="445" as="targetPoint" />
            <mxPoint x="1140" y="409" as="sourcePoint" />
            <Array as="points">
              <mxPoint x="1140" y="445" />
              <mxPoint x="1390" y="445" />
              <mxPoint x="1390" y="495" />
            </Array>
          </mxGeometry>
        </mxCell>
        <mxCell id="TM5l29GwyUXtNOeEZAqI-51" value="HTTP" style="edgeLabel;html=1;align=center;verticalAlign=middle;resizable=0;points=[];fontSize=12;" parent="TM5l29GwyUXtNOeEZAqI-50" vertex="1" connectable="0">
          <mxGeometry x="-0.0182" y="-1" relative="1" as="geometry">
            <mxPoint as="offset" />
          </mxGeometry>
        </mxCell>
        <mxCell id="TM5l29GwyUXtNOeEZAqI-52" value="Orquestador" style="swimlane;" parent="1" vertex="1">
          <mxGeometry x="1250" y="65" width="420" height="540" as="geometry" />
        </mxCell>
        <mxCell id="TM5l29GwyUXtNOeEZAqI-58" style="edgeStyle=none;curved=1;rounded=0;orthogonalLoop=1;jettySize=auto;html=1;fontSize=12;startSize=8;endSize=8;startArrow=classic;startFill=1;dashed=1;dashPattern=1 2;entryX=0.35;entryY=0;entryDx=0;entryDy=0;entryPerimeter=0;" parent="TM5l29GwyUXtNOeEZAqI-52" target="TM5l29GwyUXtNOeEZAqI-65" edge="1">
          <mxGeometry relative="1" as="geometry">
            <mxPoint x="250" y="230" as="sourcePoint" />
            <mxPoint x="250" y="280" as="targetPoint" />
          </mxGeometry>
        </mxCell>
        <mxCell id="TM5l29GwyUXtNOeEZAqI-59" value="Backend" style="swimlane;" parent="TM5l29GwyUXtNOeEZAqI-52" vertex="1">
          <mxGeometry x="180" y="50" width="200" height="180" as="geometry">
            <mxRectangle x="585" y="260" width="90" height="30" as="alternateBounds" />
          </mxGeometry>
        </mxCell>
        <mxCell id="TM5l29GwyUXtNOeEZAqI-60" value="Servicio de Autenticación" style="swimlane;" parent="TM5l29GwyUXtNOeEZAqI-59" vertex="1">
          <mxGeometry x="15" y="40" width="170" height="130" as="geometry">
            <mxRectangle x="15" y="85" width="170" height="30" as="alternateBounds" />
          </mxGeometry>
        </mxCell>
        <mxCell id="TM5l29GwyUXtNOeEZAqI-61" value="&lt;span style=&quot;font-size: 10px;&quot;&gt;Componente: Autenticar token y usuario (user)&lt;/span&gt;" style="rounded=1;whiteSpace=wrap;html=1;" parent="TM5l29GwyUXtNOeEZAqI-60" vertex="1">
          <mxGeometry x="25" y="30.5" width="120" height="39.5" as="geometry" />
        </mxCell>
        <mxCell id="TM5l29GwyUXtNOeEZAqI-62" value="&lt;span style=&quot;font-size: 10px;&quot;&gt;Componente: Autenticar token y usuario (system)&lt;/span&gt;" style="rounded=1;whiteSpace=wrap;html=1;" parent="TM5l29GwyUXtNOeEZAqI-60" vertex="1">
          <mxGeometry x="25" y="80" width="120" height="40" as="geometry" />
        </mxCell>
        <mxCell id="TM5l29GwyUXtNOeEZAqI-65" value="Backend" style="swimlane;" parent="TM5l29GwyUXtNOeEZAqI-52" vertex="1">
          <mxGeometry x="180" y="290" width="200" height="180" as="geometry">
            <mxRectangle x="585" y="260" width="90" height="30" as="alternateBounds" />
          </mxGeometry>
        </mxCell>
        <mxCell id="TM5l29GwyUXtNOeEZAqI-66" value="Servicio de Autenticación" style="swimlane;" parent="TM5l29GwyUXtNOeEZAqI-65" vertex="1">
          <mxGeometry x="15" y="40" width="170" height="130" as="geometry">
            <mxRectangle x="15" y="85" width="170" height="30" as="alternateBounds" />
          </mxGeometry>
        </mxCell>
        <mxCell id="TM5l29GwyUXtNOeEZAqI-67" value="&lt;font style=&quot;font-size: 10px;&quot;&gt;Componente: Autenticar token y usuario (system)&lt;/font&gt;" style="rounded=1;whiteSpace=wrap;html=1;" parent="TM5l29GwyUXtNOeEZAqI-66" vertex="1">
          <mxGeometry x="25" y="31" width="120" height="40" as="geometry" />
        </mxCell>
        <mxCell id="TM5l29GwyUXtNOeEZAqI-68" value="&lt;font style=&quot;font-size: 10px;&quot;&gt;Componente: Autenticar token y usuario (user)&lt;/font&gt;" style="rounded=1;whiteSpace=wrap;html=1;" parent="TM5l29GwyUXtNOeEZAqI-66" vertex="1">
          <mxGeometry x="25" y="80" width="120" height="39.5" as="geometry" />
        </mxCell>
        <mxCell id="TM5l29GwyUXtNOeEZAqI-69" style="edgeStyle=none;curved=1;rounded=0;orthogonalLoop=1;jettySize=auto;html=1;fontSize=12;startSize=8;endSize=8;startArrow=classic;startFill=1;dashed=1;dashPattern=1 2;" parent="TM5l29GwyUXtNOeEZAqI-52" edge="1">
          <mxGeometry relative="1" as="geometry">
            <mxPoint x="300" y="230" as="sourcePoint" />
            <mxPoint x="300" y="290" as="targetPoint" />
          </mxGeometry>
        </mxCell>
        <mxCell id="kJX3JyY10uSYn2_-6dJo-1" value="Keycloack - system" style="image;aspect=fixed;html=1;points=[];align=center;fontSize=12;image=img/lib/azure2/other/Azure_Edge_Hardware_Center.svg;" vertex="1" parent="TM5l29GwyUXtNOeEZAqI-52">
          <mxGeometry x="70" y="205" width="68" height="68" as="geometry" />
        </mxCell>
        <mxCell id="kJX3JyY10uSYn2_-6dJo-2" style="edgeStyle=orthogonalEdgeStyle;rounded=0;orthogonalLoop=1;jettySize=auto;html=1;startArrow=classic;startFill=1;" edge="1" parent="TM5l29GwyUXtNOeEZAqI-52" source="TM5l29GwyUXtNOeEZAqI-67">
          <mxGeometry relative="1" as="geometry">
            <mxPoint x="120" y="295" as="targetPoint" />
            <Array as="points">
              <mxPoint x="200" y="381" />
              <mxPoint x="200" y="365" />
              <mxPoint x="120" y="365" />
            </Array>
          </mxGeometry>
        </mxCell>
        <mxCell id="kJX3JyY10uSYn2_-6dJo-3" value="autenticar/ &lt;br&gt;generar token" style="edgeLabel;html=1;align=center;verticalAlign=middle;resizable=0;points=[];" vertex="1" connectable="0" parent="kJX3JyY10uSYn2_-6dJo-2">
          <mxGeometry x="0.5" y="2" relative="1" as="geometry">
            <mxPoint as="offset" />
          </mxGeometry>
        </mxCell>
        <mxCell id="TM5l29GwyUXtNOeEZAqI-77" value="Cliente SIN token" style="whiteSpace=wrap;html=1;shape=mxgraph.basic.cloud_rect;fillColor=#fff2cc;strokeColor=#d6b656;" parent="1" vertex="1">
          <mxGeometry x="890" width="150" height="30" as="geometry" />
        </mxCell>
      </root>
    </mxGraphModel>
  </diagram>
</mxfile>
